<?xml version="1.0" encoding="utf-8"?>
<!-- Generator: Adobe Illustrator 24.0.1, SVG Export Plug-In . SVG Version: 6.00 Build 0)  -->
<svg version="1.1" id="Layer_1" xmlns="http://www.w3.org/2000/svg" xmlns:xlink="http://www.w3.org/1999/xlink" x="0px" y="0px"
	 viewBox="0 0 248 109" style="enable-background:new 0 0 248 109;" xml:space="preserve">
<style type="text/css">
	.st0{fill:#AAAAAA;}
	.st1{fill:#FB4F14;}
	.st2{font-family:'HelveticaNeue';}
	.st3{font-size:2.2569px;}
	.st4{fill:#26276D;}
	.st5{fill:#03A0CE;}
</style>
<g>
	<g>
		<path class="st0" d="M134.3,85.5h1.5v5.1c0.8-1,1.9-1.7,3.2-1.7c2.5,0,4.2,2,4.2,5c0,3.1-1.7,5-4.2,5c-1.3,0-2.5-0.7-3.2-1.7v1.4
			h-1.5V85.5z M138.6,97.5c1.9,0,3.1-1.6,3.1-3.7s-1.1-3.7-3.1-3.7c-1.2,0-2.3,0.7-2.8,1.5V96C136.3,96.9,137.5,97.5,138.6,97.5z"/>
		<path class="st0" d="M146.1,101.1c0.6,0,1.1-0.2,1.4-1l0.6-1.4l-4-9.6h1.6l3.2,7.8l3.1-7.8h1.6l-4.8,11.4
			c-0.6,1.4-1.5,1.9-2.8,1.9c-0.3,0-0.8-0.1-1.1-0.1l0.2-1.3C145.6,101.1,145.9,101.1,146.1,101.1z"/>
	</g>
	<g>
		<text transform="matrix(1 0 0 1 227.7125 83.2104)" class="st1 st2 st3">®</text>
		<path class="st1" d="M175.2,98.1c0.2,0.2,0.5,0.2,0.7,0c0.1-0.1,0.3-0.3,0.6-0.5c0.2-0.2,0.4-0.4,0.6-0.6c0.2-0.2,0.2-0.6-0.1-0.8
			l-1.5-1.1c0,0-0.3,0.4-0.8,0.9c-0.6,0.5-1,0.9-1,0.9L175.2,98.1z"/>
		<path class="st1" d="M191.5,93.2c0,3.8-2.7,5.6-5.8,5.6c-3.1,0-5.8-1.8-5.8-5.6V86c0-0.3,0.2-0.5,0.5-0.5h1.5V93
			c0,2.6,1.6,3.9,3.8,3.9c2.2,0,3.8-1.2,3.8-3.9v-7.5h1.5c0.3,0,0.5,0.2,0.5,0.5V93.2z"/>
		<path class="st1" d="M206,92l0,0.2c0,0.3-0.3,0.5-0.6,0.5h-9.7c0.3,2.8,2.2,4.2,4.5,4.2c1.4,0,2.7-0.5,3.7-1.3
			c0.2-0.2,0.5-0.1,0.7,0.1l0.8,1c-1.6,1.5-3.4,2-5.3,2c-3.8,0-6.5-2.7-6.5-6.7c0-3.9,2.7-6.7,6.4-6.7C203.4,85.4,205.9,88.1,206,92
			 M195.7,91.1h8.2c-0.3-2.4-1.8-3.9-4-3.9C197.5,87.2,196,88.8,195.7,91.1"/>
		<path class="st1" d="M217.5,87.9c-0.1,0.3-0.5,0.3-0.7,0.2c-0.9-0.5-2.3-0.9-3.7-0.9c-1.8,0-3,0.8-3,2c0,1.1,0.9,1.6,2.6,1.8
			l1.5,0.2c2.7,0.4,4.3,1.5,4.3,3.6c0,2.4-2.2,4-5.6,4c-1.6,0-3.7-0.4-5.3-1.6l0.6-1c0.2-0.3,0.5-0.4,0.8-0.2c0.9,0.6,2.1,1,4,1
			c2.2,0,3.5-0.7,3.5-2.1c0-1-0.9-1.7-2.7-1.9l-1.5-0.2c-2.9-0.4-4.2-1.6-4.2-3.5c0-2.4,2-3.9,5.1-3.9c1.8,0,3.4,0.4,4.6,1.1
			c0.3,0.1,0.3,0.5,0.2,0.7L217.5,87.9z"/>
		<path class="st1" d="M228.8,96.4c-0.2-0.3-0.5-0.3-0.7-0.2c-0.7,0.4-1.4,0.6-2.2,0.6c-1.5,0-2.5-0.9-2.5-2.9v-6.7h3.4
			c0.3,0,0.5-0.2,0.5-0.5v-1.3h-3.9v-3.3c0-0.3-0.2-0.5-0.5-0.5h-1.5v3.8h-0.8c-0.3,0-0.6,0.3-0.6,0.6v1.2h1.4V94
			c0,3.2,1.6,4.7,4.4,4.7c1.6,0,2.8-0.5,3.8-1.3L228.8,96.4z"/>
		<path class="st1" d="M177.5,88.8c-0.2-5.3-4.7-9.4-9.9-9.2c-0.3,0-0.6,0-0.9,0.1c-4.9,0.6-8.5,4.9-8.4,9.9
			c0.2,5.3,4.7,9.4,9.9,9.2c1.9-0.1,3.7-0.7,5.3-1.9l-1.5-1.1c-0.2-0.1-0.4-0.1-0.6,0c-1.1,0.6-2.4,1-3.8,1
			c-3.9-0.1-7.1-3.2-7.2-7.1c-0.2-4.5,3.6-8.1,8.1-7.8c3.6,0.3,6.5,3.3,6.7,6.9c0.1,1.7-0.4,3.4-1.3,4.7c-0.2,0.2-0.1,0.6,0.1,0.7
			l1.2,0.9C176.9,93.3,177.6,91.1,177.5,88.8"/>
	</g>
</g>
<g>
	<path class="st4" d="M10,49.6v-0.2c0-12.6,9.7-22.7,23-22.7c14.2,0,22.3,10.3,22.3,23c0,0.8,0,1.3-0.1,2.1h-38
		c1,9.4,8.3,14.7,16.9,14.7c6.6,0,11.2-2.4,15.1-6.2l4.4,3.6C48.9,69,43,72.3,34,72.3C20.8,72.3,10,63.1,10,49.6z M48.1,47.1
		c-0.7-7.9-5.7-14.8-15.3-14.8c-8.3,0-14.6,6.3-15.6,14.8H48.1z"/>
	<path class="st4" d="M61.2,28.1h7.1v11.4c3.5-7.2,10.5-12.5,19.6-12.1v7h-0.6c-10.5,0-19,6.8-19,20v17.4h-7.1V28.1z"/>
	<path class="st4" d="M92.8,27.6h7.6L113,62.7l12.9-35.1h5.9l13,35.1l12.6-35.1h7.4L148,71.6h-6.2l-12.9-34.4l-13,34.4h-6.3
		L92.8,27.6z"/>
	<path class="st5" d="M170,11.4h8.2v7.2H170V11.4z M170.4,27.6h7.1v44.1h-7.1V27.6z"/>
	<path class="st4" d="M187.1,27.6h7.1v8.1c3.2-4.7,8.2-8.5,16.4-8.5c11.6,0,18.4,7.1,18.4,17.4v27h-7.1V46.2
		c0-8.1-4.8-13.1-13.3-13.1c-8.2,0-14.4,5.5-14.4,13.6v24.9h-7.1V27.6z"/>
	<path class="st5" d="M181.1,14.5l46.8,6.6c1.1,0.1,2.2-0.8,2.2-1.9V9.8c0-1.2-1-2.1-2.2-1.9L181.1,14.5L181.1,14.5z"/>
	<g>
		<path class="st4" d="M229.3,30.4L229.3,30.4c0-2,1.6-3.7,3.6-3.7c2,0,3.6,1.6,3.6,3.6v0c0,2-1.6,3.6-3.6,3.6
			C230.9,34,229.3,32.4,229.3,30.4z M236.2,30.4L236.2,30.4c0-1.8-1.4-3.2-3.2-3.2c-1.8,0-3.2,1.5-3.2,3.2v0c0,1.8,1.4,3.2,3.2,3.2
			C234.8,33.6,236.2,32.1,236.2,30.4z M231.5,28.4h1.8c0.9,0,1.5,0.4,1.5,1.2c0,0.6-0.3,1-0.8,1.2l1,1.4h-1.1L233,31h-0.6v1.2h-0.9
			V28.4z M233.2,30.2c0.4,0,0.6-0.2,0.6-0.5c0-0.3-0.2-0.5-0.6-0.5h-0.8v1H233.2z"/>
	</g>
</g>
</svg>
